<svg width="36" height="36" viewBox="0 0 36 36" fill="none" xmlns="http://www.w3.org/2000/svg">
<path d="M32.8794 17.4C29.8494 10.365 24.1494 6 17.9994 6C11.8494 6 6.14937 10.365 3.11937 17.4C3.03677 17.5892 2.99414 17.7935 2.99414 18C2.99414 18.2065 3.03677 18.4108 3.11937 18.6C6.14937 25.635 11.8494 30 17.9994 30C24.1494 30 29.8494 25.635 32.8794 18.6C32.962 18.4108 33.0046 18.2065 33.0046 18C33.0046 17.7935 32.962 17.5892 32.8794 17.4ZM17.9994 27C13.2444 27 8.74437 23.565 6.14937 18C8.74437 12.435 13.2444 9 17.9994 9C22.7544 9 27.2544 12.435 29.8494 18C27.2544 23.565 22.7544 27 17.9994 27ZM17.9994 12C16.8127 12 15.6526 12.3519 14.6659 13.0112C13.6793 13.6705 12.9102 14.6075 12.4561 15.7039C12.002 16.8003 11.8831 18.0067 12.1147 19.1705C12.3462 20.3344 12.9176 21.4035 13.7567 22.2426C14.5958 23.0818 15.6649 23.6532 16.8288 23.8847C17.9927 24.1162 19.1991 23.9974 20.2955 23.5433C21.3918 23.0892 22.3289 22.3201 22.9882 21.3334C23.6475 20.3467 23.9994 19.1867 23.9994 18C23.9994 16.4087 23.3672 14.8826 22.242 13.7574C21.1168 12.6321 19.5907 12 17.9994 12ZM17.9994 21C17.406 21 16.826 20.8241 16.3327 20.4944C15.8393 20.1648 15.4548 19.6962 15.2277 19.1481C15.0007 18.5999 14.9413 17.9967 15.057 17.4147C15.1728 16.8328 15.4585 16.2982 15.878 15.8787C16.2976 15.4591 16.8322 15.1734 17.4141 15.0576C17.996 14.9419 18.5992 15.0013 19.1474 15.2284C19.6956 15.4554 20.1641 15.8399 20.4938 16.3333C20.8234 16.8266 20.9994 17.4067 20.9994 18C20.9994 18.7956 20.6833 19.5587 20.1207 20.1213C19.5581 20.6839 18.795 21 17.9994 21Z" fill="#0EB5F9"/>
</svg>
