<svg width="236" height="238" viewBox="0 0 236 238" fill="none" xmlns="http://www.w3.org/2000/svg">
<path fill-rule="evenodd" clip-rule="evenodd" d="M85.0684 33.0439C85.0684 14.8557 99.8128 0.111328 118.001 0.111328C136.189 0.111328 150.933 14.8557 150.933 33.0439C150.933 51.232 136.189 65.9764 118.001 65.9764C114.871 65.9764 111.842 65.5397 108.973 64.7238L93.3282 85.3378C90.6651 88.8465 85.0686 86.9632 85.0686 82.5584V37.5378C85.0686 37.1057 85.1246 36.6952 85.2283 36.3102C85.1225 35.2357 85.0684 34.1461 85.0684 33.0439ZM118.26 46.8222C125.978 46.8222 132.235 40.565 132.235 32.8464C132.235 25.1278 125.978 18.8706 118.26 18.8706C110.541 18.8706 104.284 25.1278 104.284 32.8464C104.284 40.565 110.541 46.8222 118.26 46.8222Z" fill="white"/>
<path d="M3.52762 168.889V123.629H22.8425C32.9199 123.629 39.5497 129.994 39.5497 139.541C39.5497 149.176 32.7652 155.275 22.4227 155.275H15.4392V168.889H3.52762ZM15.4392 145.994H20.0801C24.5442 145.994 27.1519 143.496 27.1519 139.541C27.1519 135.563 24.5442 133.176 20.0801 133.176H15.4392V145.994ZM87.751 146.259C87.751 161.331 78.0936 169.507 65.8505 169.507C53.519 169.507 43.9499 161.242 43.9499 146.259C43.9499 131.187 53.519 123.01 65.8505 123.01C78.0936 123.01 87.751 131.187 87.751 146.259ZM56.193 146.259C56.193 154.59 59.6405 159.121 65.8505 159.121C72.0604 159.121 75.5079 154.59 75.5079 146.259C75.5079 137.927 72.0604 133.397 65.8505 133.397C59.6405 133.397 56.193 137.927 56.193 146.259ZM93.5276 168.889V123.629H112.843C122.92 123.629 129.55 129.994 129.55 139.541C129.55 149.176 122.765 155.275 112.423 155.275H105.439V168.889H93.5276ZM105.439 145.994H110.08C114.544 145.994 117.152 143.496 117.152 139.541C117.152 135.563 114.544 133.176 110.08 133.176H105.439V145.994ZM134.215 168.889V123.629H153.53C163.607 123.629 170.237 129.994 170.237 139.541C170.237 149.176 163.453 155.275 153.11 155.275H146.127V168.889H134.215ZM146.127 145.994H150.768C155.232 145.994 157.839 143.496 157.839 139.541C157.839 135.563 155.232 133.176 150.768 133.176H146.127V145.994ZM186.814 123.629V168.889H174.903V123.629H186.814ZM231.886 123.629V168.889H221.919L205.102 144.469H204.814V168.889H192.903V123.629H203.068L219.621 147.983H219.974V123.629H231.886Z" fill="white"/>
<path d="M21.5055 227.889H14.2831L22.7362 202.43H31.8481L40.3011 227.889H33.0787L31.5497 222.891H23.0345L21.5055 227.889ZM24.576 217.844H30.0083L27.3854 209.28H27.1865L24.576 217.844ZM48.3931 228.15C44.2784 228.15 40.8599 224.93 40.8599 218.342C40.8599 211.48 44.5146 208.546 48.3558 208.546C51.2397 208.546 52.9925 210.224 53.7384 212.114H53.8378V202.43H60.4884V227.889H53.8875V224.769H53.7384C52.9428 226.658 51.1403 228.15 48.3931 228.15ZM47.6845 218.342C47.6845 221.251 48.8281 223.016 50.8171 223.016C52.7936 223.016 53.987 221.213 53.987 218.342C53.987 215.433 52.7936 213.668 50.8171 213.668C48.8281 213.668 47.6845 215.445 47.6845 218.342ZM63.969 227.889V208.795H70.2839V212.387H70.4828C71.2784 210.025 73.2922 208.546 75.9276 208.546C78.6127 208.546 80.7259 210.063 81.1486 212.387H81.3475C82.0063 210.075 84.2812 208.546 87.1154 208.546C90.7577 208.546 93.2563 211.07 93.2563 215.01V227.889H86.6182V216.664C86.6182 214.936 85.6486 213.904 84.1942 213.904C82.7025 213.904 81.795 214.973 81.795 216.676V227.889H75.4304V216.639C75.4304 214.948 74.4732 213.904 73.0188 213.904C71.5519 213.904 70.6196 214.973 70.6196 216.701V227.889H63.969ZM96.7347 227.889V208.795H103.385V227.889H96.7347ZM96.7471 203.673C96.7471 201.983 98.2264 200.603 100.054 200.603C101.881 200.603 103.36 201.983 103.36 203.673C103.36 205.364 101.881 206.744 100.054 206.744C98.2264 206.744 96.7471 205.364 96.7471 203.673ZM113.581 217.111V227.889H106.93V208.795H113.245V212.387H113.444C114.277 210.001 116.477 208.546 119.299 208.546C123.339 208.546 125.962 211.517 125.949 215.706V227.889H119.299V217.086C119.311 215.135 118.255 213.954 116.477 213.954C114.712 213.954 113.593 215.135 113.581 217.111ZM137.16 227.889V202.43H148.025C153.693 202.43 157.423 206.01 157.423 211.38C157.423 216.8 153.606 220.231 147.789 220.231H143.86V227.889H137.16ZM143.86 215.01H146.471C148.982 215.01 150.449 213.606 150.449 211.38C150.449 209.143 148.982 207.8 146.471 207.8H143.86V215.01ZM158.418 222.606C158.418 218.404 161.563 216.775 165.466 216.539C166.896 216.452 169.146 216.378 169.916 216.353L169.904 214.824C169.892 213.742 169.021 213.146 167.741 213.146C166.374 213.146 165.466 213.742 165.292 214.936H159.151C159.4 211.48 162.222 208.546 167.84 208.546C173.124 208.546 176.554 211.169 176.554 214.836V227.889H170.327V225.204H170.177C169.059 227.292 167.182 228.199 164.646 228.199C161.003 228.199 158.418 226.409 158.418 222.606ZM164.683 222.245C164.683 223.364 165.553 223.96 166.784 223.96C168.45 223.96 169.966 222.891 169.954 221.114L169.941 220.082C169.27 220.094 167.517 220.181 166.635 220.281C165.441 220.418 164.683 221.201 164.683 222.245ZM189.026 235.447C183.358 235.447 180.026 232.849 179.753 229.169H186.18C186.378 230.437 187.572 230.934 189.225 230.934C191.077 230.934 192.432 230.164 192.432 227.864V224.594H192.221C191.488 226.484 189.499 227.64 186.838 227.64C182.736 227.64 179.305 224.905 179.305 218.329C179.305 211.48 182.96 208.546 186.801 208.546C189.685 208.546 191.438 210.224 192.184 212.114H192.333V208.795H198.971V227.876C198.971 232.724 194.993 235.447 189.026 235.447ZM186.13 218.329C186.13 221.226 187.273 222.891 189.262 222.891C191.239 222.891 192.432 221.201 192.432 218.329C192.432 215.433 191.239 213.668 189.262 213.668C187.273 213.668 186.13 215.445 186.13 218.329ZM211.642 228.237C205.563 228.237 201.846 224.557 201.846 218.391C201.846 212.487 205.613 208.546 211.48 208.546C217.149 208.546 220.915 212.188 220.915 218.329V219.896H208.398V220.157C208.398 222.133 209.665 223.538 211.779 223.538C213.233 223.538 214.389 222.904 214.799 221.822H220.891C220.232 225.738 216.863 228.237 211.642 228.237ZM208.398 216.191H214.775C214.75 214.463 213.407 213.245 211.63 213.245C209.864 213.245 208.447 214.463 208.398 216.191Z" fill="white"/>
</svg>
