<svg width="853" height="1316" viewBox="0 0 853 1316" fill="none" xmlns="http://www.w3.org/2000/svg">
<ellipse cx="426.5" cy="1208.62" rx="426.5" ry="106.625" fill="#9F9F9F" fill-opacity="0.2"/>
<ellipse cx="353.335" cy="1205.96" rx="280.169" ry="75.526" fill="#9F9F9F" fill-opacity="0.4"/>
<ellipse cx="315.434" cy="1205.77" rx="146.452" ry="42.0697" fill="#9F9F9F" fill-opacity="0.6"/>
<path fill-rule="evenodd" clip-rule="evenodd" d="M98.0001 376.062C98.0001 168.369 266.565 0 474.5 0C682.435 0 851 168.369 851 376.062C851 583.755 682.435 752.123 474.5 752.123C438.713 752.123 404.092 747.136 371.295 737.819L157.802 1018.79C138.521 1044.16 98 1030.54 98 998.687V387.234C98 386.351 98.0324 385.481 98.0957 384.624C98.032 381.777 98.0001 378.923 98.0001 376.062ZM477.472 533.4C565.715 533.4 637.25 461.948 637.25 373.808C637.25 285.668 565.715 214.216 477.472 214.216C389.229 214.216 317.695 285.668 317.695 373.808C317.695 461.948 389.229 533.4 477.472 533.4Z" fill="#0EB5F9"/>
</svg>
