<svg width="29" height="29" viewBox="0 0 29 29" fill="none" xmlns="http://www.w3.org/2000/svg">
<path d="M25.0082 6.65898L18.0314 4.33339H17.95C17.8959 4.32795 17.8413 4.32795 17.7872 4.33339H17.5198H17.3686H17.2872L10.6825 6.60084L4.07786 4.33339C3.903 4.27573 3.71693 4.26042 3.53499 4.28872C3.35305 4.31702 3.18044 4.38813 3.03135 4.49618C2.88107 4.60318 2.7584 4.74439 2.67348 4.90817C2.58856 5.07194 2.54383 5.25357 2.54297 5.43805V21.7172C2.54234 21.961 2.61834 22.1988 2.76023 22.397C2.90212 22.5952 3.10272 22.7438 3.33367 22.8218L10.3104 25.1474C10.5447 25.2238 10.7971 25.2238 11.0314 25.1474V25.1474L17.6593 22.9381L24.264 25.2056C24.3875 25.2223 24.5126 25.2223 24.6361 25.2056C24.8792 25.209 25.1165 25.1312 25.3105 24.9846C25.4608 24.8776 25.5835 24.7364 25.6684 24.5726C25.7533 24.4089 25.798 24.2273 25.7989 24.0428V7.76364C25.7995 7.51986 25.7235 7.28206 25.5816 7.08383C25.4397 6.88561 25.2391 6.73699 25.0082 6.65898V6.65898ZM9.51974 22.4265L4.86856 20.88V7.05433L9.51974 8.60085V22.4265ZM16.4965 20.88L11.8453 22.4265V8.60085L16.4965 7.05433V20.88ZM23.4733 22.4265L18.8221 20.88V7.05433L23.4733 8.60085V22.4265Z" fill="black"/>
</svg>
