<svg width="156" height="156" viewBox="0 0 156 156" fill="none" xmlns="http://www.w3.org/2000/svg">
<ellipse cx="77.7" cy="78.3091" rx="77.7" ry="77.6236" fill="url(#paint0_linear_7532_67078)"/>
<path d="M53.4187 67.178L76.7003 85.8585C78.0312 86.9264 78.2692 88.8601 77.237 90.2188L53.9553 120.864C52.1309 123.266 48.2998 121.975 48.2998 118.96V69.6337C48.2998 66.9916 51.3579 65.5245 53.4187 67.178Z" fill="white"/>
<path fill-rule="evenodd" clip-rule="evenodd" d="M79.7998 36.4702C62.4199 36.4702 48.2998 50.5594 48.2998 67.9392C48.2998 85.3191 62.4199 99.4082 79.7998 99.4082C97.1797 99.4082 111.3 85.3191 111.3 67.9392C111.3 50.5594 97.1797 36.4702 79.7998 36.4702ZM80.0489 81.1036C87.4318 81.1036 93.4168 75.1244 93.4168 67.7488C93.4168 60.3732 87.4318 54.3941 80.0489 54.3941C72.666 54.3941 66.6811 60.3732 66.6811 67.7488C66.6811 75.1244 72.666 81.1036 80.0489 81.1036Z" fill="white"/>
<defs>
<linearGradient id="paint0_linear_7532_67078" x1="49.95" y1="-33.4218" x2="-85.6984" y2="69.3406" gradientUnits="userSpaceOnUse">
<stop stop-color="#14B4F9"/>
<stop offset="1" stop-color="#D778CE"/>
</linearGradient>
</defs>
</svg>
