<svg width="23" height="23" viewBox="0 0 23 23" fill="none" xmlns="http://www.w3.org/2000/svg">
<path d="M17.8925 13.8143C17.2583 13.8185 16.633 13.9631 16.0614 14.2378C15.4897 14.5125 14.9861 14.9104 14.5866 15.4029L9.11248 12.8805C9.36986 12.0924 9.36986 11.2428 9.11248 10.4547L14.5866 7.93237C15.2323 8.71158 16.1326 9.23764 17.1284 9.41771C18.1243 9.59778 19.1517 9.42027 20.0295 8.91652C20.9072 8.41278 21.5788 7.61517 21.9256 6.66446C22.2725 5.71376 22.2724 4.67108 21.9254 3.72044C21.5783 2.7698 20.9066 1.97232 20.0288 1.46873C19.151 0.96514 18.1235 0.787823 17.1276 0.968071C16.1318 1.14832 15.2317 1.67454 14.5861 2.45388C13.9405 3.23321 13.5909 4.21555 13.5991 5.22753C13.6023 5.48323 13.6274 5.73819 13.6742 5.9896L8.00693 8.59784C7.40272 8.00705 6.6376 7.6077 5.80743 7.44982C4.97726 7.29194 4.11896 7.38256 3.34006 7.71033C2.56117 8.03809 1.89631 8.58842 1.4288 9.29237C0.961291 9.99631 0.711914 10.8226 0.711914 11.6676C0.711914 12.5127 0.961291 13.3389 1.4288 14.0429C1.89631 14.7468 2.56117 15.2972 3.34006 15.6249C4.11896 15.9527 4.97726 16.0433 5.80743 15.8854C6.6376 15.7276 7.40272 15.3282 8.00693 14.7374L13.6742 17.3456C13.6274 17.5971 13.6023 17.852 13.5991 18.1077C13.5991 18.9569 13.8509 19.787 14.3227 20.493C14.7944 21.1991 15.465 21.7493 16.2495 22.0743C17.034 22.3993 17.8972 22.4843 18.7301 22.3186C19.5629 22.153 20.3279 21.7441 20.9284 21.1436C21.5288 20.5432 21.9377 19.7782 22.1034 18.9453C22.269 18.1125 22.184 17.2492 21.8591 16.4647C21.5341 15.6802 20.9838 15.0097 20.2778 14.5379C19.5717 14.0661 18.7416 13.8143 17.8925 13.8143ZM17.8925 3.08083C18.3171 3.08083 18.7321 3.20673 19.0851 3.44261C19.4381 3.67849 19.7133 4.01376 19.8758 4.40602C20.0383 4.79828 20.0808 5.22991 19.9979 5.64633C19.9151 6.06274 19.7106 6.44525 19.4104 6.74547C19.1102 7.04569 18.7277 7.25015 18.3113 7.33298C17.8949 7.41581 17.4632 7.3733 17.071 7.21082C16.6787 7.04834 16.3434 6.77319 16.1076 6.42017C15.8717 6.06714 15.7458 5.6521 15.7458 5.22753C15.7458 4.65819 15.972 4.11216 16.3745 3.70958C16.7771 3.307 17.3231 3.08083 17.8925 3.08083V3.08083ZM5.01229 13.8143C4.58771 13.8143 4.17267 13.6884 3.81964 13.4525C3.46662 13.2167 3.19147 12.8814 3.029 12.4891C2.86652 12.0969 2.824 11.6652 2.90684 11.2488C2.98967 10.8324 3.19412 10.4499 3.49434 10.1497C3.79456 9.84946 4.17707 9.645 4.59349 9.56217C5.00991 9.47934 5.44154 9.52185 5.83379 9.68433C6.22605 9.84681 6.56132 10.122 6.7972 10.475C7.03308 10.828 7.15899 11.243 7.15899 11.6676C7.15899 12.237 6.93282 12.783 6.53023 13.1856C6.12765 13.5882 5.58163 13.8143 5.01229 13.8143ZM17.8925 20.2544C17.4679 20.2544 17.0529 20.1285 16.6998 19.8926C16.3468 19.6568 16.0717 19.3215 15.9092 18.9292C15.7467 18.537 15.7042 18.1053 15.787 17.6889C15.8699 17.2725 16.0743 16.89 16.3745 16.5898C16.6748 16.2896 17.0573 16.0851 17.4737 16.0023C17.8901 15.9194 18.3217 15.962 18.714 16.1244C19.1062 16.2869 19.4415 16.5621 19.6774 16.9151C19.9133 17.2681 20.0392 17.6831 20.0392 18.1077C20.0392 18.6771 19.813 19.2231 19.4104 19.6257C19.0078 20.0283 18.4618 20.2544 17.8925 20.2544Z" fill="black"/>
</svg>
