<svg width="26" height="25" viewBox="0 0 26 25" fill="none" xmlns="http://www.w3.org/2000/svg">
<path d="M10.9371 2.94166L10.9096 2.98981L10.8865 3.04024L8.75255 7.69594L3.98506 8.39779C3.46062 8.42335 2.86342 8.63863 2.50181 9.21623C1.78215 10.0969 1.82181 11.3644 2.62079 12.2025L2.62604 12.208L2.63136 12.2134L6.15098 15.8152L5.28909 20.9683L5.27218 21.0694V21.1719C5.27218 21.1818 5.27212 21.1927 5.27206 21.2046C5.27106 21.3983 5.26873 21.8488 5.48882 22.3106L5.50868 22.3522L5.53161 22.3923C6.09149 23.3711 7.39278 23.9694 8.57812 23.25L12.8773 20.8626L17.1089 23.2124C17.3881 23.4139 17.6765 23.4719 17.8224 23.4937C18.002 23.5206 18.1829 23.5202 18.2658 23.52C18.2721 23.52 18.2777 23.52 18.2828 23.52H18.2834H18.284H18.2845H18.2851H18.2856H18.2862H18.2867H18.2873H18.2878H18.2884H18.2889H18.2895H18.29H18.2905H18.2911H18.2916H18.2921H18.2927H18.2932H18.2937H18.2942H18.2947H18.2953H18.2958H18.2963H18.2968H18.2973H18.2978H18.2983H18.2988H18.2993H18.2998H18.3003H18.3008H18.3013H18.3018H18.3023H18.3028H18.3033H18.3038H18.3043H18.3047H18.3052H18.3057H18.3062H18.3066H18.3071H18.3076H18.3081H18.3085H18.309H18.3094H18.3099H18.3104H18.3108H18.3113H18.3117H18.3122H18.3126H18.3131H18.3135H18.314H18.3144H18.3149H18.3153H18.3158H18.3162H18.3166H18.3171H18.3175H18.3179H18.3184H18.3188H18.3192H18.3196H18.3201H18.3205H18.3209H18.3213H18.3217H18.3222H18.3226H18.323H18.3234H18.3238H18.3242H18.3246H18.325H18.3254H18.3258H18.3262H18.3266H18.327H18.3274H18.3278H18.3282H18.3286H18.329H18.3294H18.3298H18.3302H18.3305H18.3309H18.3313H18.3317H18.3321H18.3325H18.3328H18.3332H18.3336H18.334H18.3343H18.3347H18.3351H18.3354H18.3358H18.3362H18.3365H18.3369H18.3373H18.3376H18.338H18.3384H18.3387H18.3391H18.3394H18.3398H18.3401H18.3405H18.3408H18.3412H18.3415H18.3419H18.3422H18.3426H18.3429H18.3433H18.3436H18.344H18.3443H18.3446H18.345H18.3453H18.3457H18.346H18.3463H18.3467H18.347H18.3473H18.3477H18.348H18.3483H18.3487H18.349H18.3493H18.3496H18.35H18.3503H18.3506H18.3509H18.3513H18.3516H18.3519H18.3522H18.3525H18.3528H18.3532H18.3535H18.3538H18.3541H18.3544H18.3547H18.3551H18.3554H18.3557H18.356H18.3563H18.3566H18.3569H18.3572H18.3575H18.3578H18.3581H18.3585H18.3588H18.3591H18.3594H18.3597H18.36H18.3603H18.3606H18.3609H18.3612H18.3615H18.3618H18.3621H18.3624H18.3627H18.363H18.3633H18.3636H18.3639H18.3641H18.3644H18.3647H18.365H18.3653H18.3656H18.3659H18.3662H18.3665H18.3668H18.3671H18.3674H18.3677H18.3679H18.3682H18.3685H18.3688H18.3691H18.3694H18.3697H18.37H18.3703H18.3705H18.3708H18.3711H18.3714H18.3717H18.372H18.3723H18.3725H18.3728H18.3731H18.3734H18.3737H18.374H18.3743H18.3745H18.3748H18.3751H18.3754H18.3757H18.376H18.3762H18.3765H18.3768H18.3771H18.3774H18.3777H18.3779H18.3782H18.3785H18.3788H18.3791H18.3793H18.3796H18.3799H18.3802H18.3805H18.3808H18.381H18.3813H18.3816H18.3819H18.3822H18.3825H18.3827H18.383H18.3833H18.3836H18.3839H18.3842H18.3844H18.3847H18.385H18.3853H18.3856H18.3859H18.3862H18.3864H18.3867H18.387H18.3873H18.3876H18.3879H18.3882H18.3884H18.3887H18.389H18.3893H18.3896H18.3899H18.3902H18.3905H18.3908H18.391H18.3913H18.3916H18.3919H18.3922H18.3925H18.3928H18.3931H18.3934H18.3937H18.394H18.3943H18.3946H18.3948H18.3951H18.3954H18.3957H18.396H18.3963H18.3966H18.3969H18.3972H18.3975H18.3978H18.3981H18.3984H18.3987H18.399H18.3993H18.3996H18.3999H18.4002H18.4006H18.4009H18.4012H18.4015H18.4018H18.4021H18.4024H18.4027H18.403H18.4033H18.4036H18.404H18.4043H18.4046H18.4049H18.4052H18.4055H18.4058H18.4062H18.4065H18.4068H18.4071H18.4074H18.4078H18.4081H18.4084H18.4087H18.4091H18.4094H18.4097H18.41H18.4104H18.4107H18.411H18.4114H18.4117H18.412H18.4124H18.4127H18.413H18.4134H18.4137H18.4141H18.4144H18.4147H18.4151H18.4154H18.4158H18.4161H18.4165H18.4168H18.4172H18.4175H18.4179H18.4182H18.4186H18.4189H18.4193H18.4196H18.42H18.4203H18.4207H18.4211H18.4214H18.4218H18.4222H18.4225H18.4229H18.4233H18.4236H18.424H18.4244H18.4247H18.4251H18.4255H18.4259H18.4262H18.4266H18.427H18.4274H18.4278H18.4282H18.4285H18.4289H18.4293H18.4297H18.4301H18.4305H18.4309H18.4313H18.4317H18.4321H18.4325H18.4329H18.4333H18.4337H18.4341H18.4345H18.4349H18.4353H18.4357H18.4361H18.4365H18.437H18.4374H18.4378H18.4382H18.4386H18.4391H18.4395H18.4399H18.4403H18.4408H18.4412H18.4416H18.4421H18.4425H18.4429H18.4434H18.4438H18.4443H18.4447H18.4452H18.4456H18.4461H18.4465H18.447H18.4474H18.4479H18.4483H18.4488H18.4493H18.4497H18.4502H18.4506H18.4511H18.4516H18.4521H18.4525H18.453H18.4535H18.454H18.4544H18.4549H18.4554H18.4559H18.4564H18.4569H18.4574H18.4579H18.4584H18.4589H18.4594H18.4599H18.4604H18.4609H18.4614H18.4619H18.4624H18.4629H18.4634H18.464H18.4645H18.465H18.4655H18.466H18.4666H18.4671H18.4676H18.4682H18.4687H18.4692H18.4698H18.4703H18.4709H18.4714H18.472H18.4725H18.4731H18.4736H18.4742H18.4747H18.4753H18.4759H18.604L18.7293 23.4937C19.8801 23.2523 20.6631 22.1099 20.4672 20.877L20.4672 20.877L20.4655 20.867L19.6036 15.7139L23.0253 12.2124C23.5039 11.8696 23.7272 11.3442 23.7601 10.8672C23.8401 10.2834 23.6645 9.72246 23.3851 9.30738C23.1084 8.89621 22.5932 8.44219 21.8713 8.39856L17.0868 7.69419L14.8603 3.02341C14.7777 2.85011 14.6624 2.65096 14.4826 2.46235C14.3157 2.2873 14.1373 2.16752 13.9749 2.07871C12.7919 1.36751 11.4956 1.96529 10.9371 2.94166Z" stroke="black" stroke-width="2.4687"/>
</svg>
